<?xml version="1.0" encoding="UTF-8"?>
<svg width="353" height="331" version="1.1" viewBox="0 0 353 331" xmlns="http://www.w3.org/2000/svg">
 <defs>
  <marker id="ConcaveTriangle" overflow="visible" markerHeight="1" markerWidth="1" orient="auto-start-reverse" preserveAspectRatio="xMidYMid" viewBox="0 0 1 1">
   <path transform="scale(.7)" d="m-2-4 11 4-11 4c2-2.33 2-5.66 0-8z" fill="context-stroke" fill-rule="evenodd"/>
  </marker>
  <marker id="marker3-4-1" overflow="visible" markerHeight="1" markerWidth="1" orient="auto-start-reverse" preserveAspectRatio="xMidYMid" viewBox="0 0 1 1">
   <path transform="scale(.7)" d="m-2-4 11 4-11 4c2-2.33 2-5.66 0-8z" fill="context-stroke" fill-rule="evenodd"/>
  </marker>
  <marker id="marker3-4-1-6" overflow="visible" markerHeight="1" markerWidth="1" orient="auto-start-reverse" preserveAspectRatio="xMidYMid" viewBox="0 0 1 1">
   <path transform="scale(.7)" d="m-2-4 11 4-11 4c2-2.33 2-5.66 0-8z" fill="context-stroke" fill-rule="evenodd"/>
  </marker>
  <marker id="ConcaveTriangle-1" overflow="visible" markerHeight="1" markerWidth="1" orient="auto-start-reverse" preserveAspectRatio="xMidYMid" viewBox="0 0 1 1">
   <path transform="scale(.7)" d="m-2-4 11 4-11 4c2-2.33 2-5.66 0-8z" fill="context-stroke" fill-rule="evenodd"/>
  </marker>
  <marker id="marker3-4-1-9-2-4" overflow="visible" markerHeight="1.00100005" markerWidth="1.00100005" orient="auto-start-reverse" preserveAspectRatio="xMidYMid" viewBox="0 0 1 1">
   <path transform="scale(.7)" d="m-2-4 11 4-11 4c2-2.33 2-5.66 0-8z" fill="context-stroke" fill-rule="evenodd"/>
  </marker>
  <marker id="ConcaveTriangle-5" overflow="visible" markerHeight="1" markerWidth="1" orient="auto-start-reverse" preserveAspectRatio="xMidYMid" viewBox="0 0 1 1">
   <path transform="scale(.7)" d="m-2-4 11 4-11 4c2-2.33 2-5.66 0-8z" fill="context-stroke" fill-rule="evenodd"/>
  </marker>
  <marker id="ConcaveTriangle-1-2" overflow="visible" markerHeight="1" markerWidth="1" orient="auto-start-reverse" preserveAspectRatio="xMidYMid" viewBox="0 0 1 1">
   <path transform="scale(.7)" d="m-2-4 11 4-11 4c2-2.33 2-5.66 0-8z" fill="context-stroke" fill-rule="evenodd"/>
  </marker>
  <marker id="marker3-4-1-1" overflow="visible" markerHeight="1" markerWidth="1" orient="auto-start-reverse" preserveAspectRatio="xMidYMid" viewBox="0 0 1 1">
   <path transform="scale(.7)" d="m-2-4 11 4-11 4c2-2.33 2-5.66 0-8z" fill="context-stroke" fill-rule="evenodd"/>
  </marker>
  <marker id="marker3-4-1-6-3" overflow="visible" markerHeight="1" markerWidth="1" orient="auto-start-reverse" preserveAspectRatio="xMidYMid" viewBox="0 0 1 1">
   <path transform="scale(.7)" d="m-2-4 11 4-11 4c2-2.33 2-5.66 0-8z" fill="context-stroke" fill-rule="evenodd"/>
  </marker>
 </defs>
 <g transform="translate(-.09875 .6323)" fill="none" stroke="#929292" stroke-width="2">
  <rect x="9.099" y="160.4" width="72" height="72" stroke-linecap="round" stroke-linejoin="round" stroke-miterlimit="0" style="paint-order:fill markers stroke"/>
  <g>
   <path d="m33 160.4v71.61"/>
   <path d="m81.13 184.3h-71.61"/>
   <path d="m80.94 208.3h-71.61"/>
   <path d="m57.33 160.5v71.61"/>
  </g>
 </g>
 <g transform="translate(86.9 .6323)" fill="none" stroke="#929292" stroke-width="2">
  <rect x="9.099" y="160.4" width="72" height="72" stroke-linecap="round" stroke-linejoin="round" stroke-miterlimit="0" style="paint-order:fill markers stroke"/>
  <g>
   <path d="m33 160.4v71.61"/>
   <path d="m81.13 184.3h-71.61"/>
   <path d="m80.94 208.3h-71.61"/>
   <path d="m57.33 160.5v71.61"/>
  </g>
 </g>
 <g transform="translate(173.9 .6323)" fill="none" stroke="#929292" stroke-width="2">
  <rect x="9.099" y="160.4" width="72" height="72" stroke-linecap="round" stroke-linejoin="round" stroke-miterlimit="0" style="paint-order:fill markers stroke"/>
  <g>
   <path d="m33 160.4v71.61"/>
   <path d="m81.13 184.3h-71.61"/>
   <path d="m80.94 208.3h-71.61"/>
   <path d="m57.33 160.5v71.61"/>
  </g>
 </g>
 <g transform="translate(260.9 .6323)" fill="none" stroke="#929292" stroke-width="2">
  <rect x="9.099" y="160.4" width="72" height="72" stroke-linecap="round" stroke-linejoin="round" stroke-miterlimit="0" style="paint-order:fill markers stroke"/>
  <g>
   <path d="m33 160.4v71.61"/>
   <path d="m81.13 184.3h-71.61"/>
   <path d="m80.94 208.3h-71.61"/>
   <path d="m57.33 160.5v71.61"/>
  </g>
 </g>
 <g transform="translate(-.09875 88.63)" fill="none" stroke="#929292" stroke-width="2">
  <rect x="9.099" y="160.4" width="72" height="72" stroke-linecap="round" stroke-linejoin="round" stroke-miterlimit="0" style="paint-order:fill markers stroke"/>
  <g>
   <path d="m33 160.4v71.61"/>
   <path d="m81.13 184.3h-71.61"/>
   <path d="m80.94 208.3h-71.61"/>
   <path d="m57.33 160.5v71.61"/>
  </g>
 </g>
 <g transform="translate(86.9 88.63)" fill="none" stroke="#929292" stroke-width="2">
  <rect x="9.099" y="160.4" width="72" height="72" stroke-linecap="round" stroke-linejoin="round" stroke-miterlimit="0" style="paint-order:fill markers stroke"/>
  <g>
   <path d="m33 160.4v71.61"/>
   <path d="m81.13 184.3h-71.61"/>
   <path d="m80.94 208.3h-71.61"/>
   <path d="m57.33 160.5v71.61"/>
  </g>
 </g>
 <g transform="translate(173.9 88.63)" fill="none" stroke="#929292" stroke-width="2">
  <rect x="9.099" y="160.4" width="72" height="72" stroke-linecap="round" stroke-linejoin="round" stroke-miterlimit="0" style="paint-order:fill markers stroke"/>
  <g>
   <path d="m33 160.4v71.61"/>
   <path d="m81.13 184.3h-71.61"/>
   <path d="m80.94 208.3h-71.61"/>
   <path d="m57.33 160.5v71.61"/>
  </g>
 </g>
 <g transform="translate(260.9 88.63)" fill="none" stroke="#929292" stroke-width="2">
  <rect x="9.099" y="160.4" width="72" height="72" stroke-linecap="round" stroke-linejoin="round" stroke-miterlimit="0" style="paint-order:fill markers stroke"/>
  <g>
   <path d="m33 160.4v71.61"/>
   <path d="m81.13 184.3h-71.61"/>
   <path d="m80.94 208.3h-71.61"/>
   <path d="m57.33 160.5v71.61"/>
  </g>
 </g>
 <g fill="none" stroke="#c02525">
  <g stroke-width="1.624">
   <path d="m330.1 170.1v43.37" marker-end="url(#marker3-4-1)"/>
   <path d="m107.5 258.5v43.37" marker-end="url(#marker3-4-1-1)"/>
   <path d="m330.3 311.4v-43.37" marker-end="url(#marker3-4-1-6)"/>
   <path d="m107.5 223.6v-43.37" marker-end="url(#marker3-4-1-6-3)"/>
  </g>
  <g stroke-width="1.667">
   <path transform="matrix(.6064 -.6481 .6718 .5849 -224.7 199.6)" d="m150.8 271.7c8.898 12.2 6.141 29.83-6.055 38.72-0.3156 0.2303-0.6362 0.4539-0.9612 0.6706" marker-start="url(#ConcaveTriangle)"/>
   <path transform="matrix(.6064 -.6481 .6718 .5849 -224 111.6)" d="m150.8 271.7c8.898 12.2 6.141 29.83-6.055 38.72-0.3156 0.2303-0.6362 0.4539-0.9612 0.6706" marker-start="url(#ConcaveTriangle-5)"/>
   <path transform="matrix(-.6064 -.6481 -.6718 .5849 488.4 198.3)" d="m150.8 271.7c8.898 12.2 6.141 29.83-6.055 38.72-0.3156 0.2303-0.6362 0.4539-0.9612 0.6706" marker-start="url(#ConcaveTriangle-1)"/>
   <path transform="matrix(-.6064 -.6481 -.6718 .5849 487.6 112.6)" d="m150.8 271.7c8.898 12.2 6.141 29.83-6.055 38.72-0.3156 0.2303-0.6362 0.4539-0.9612 0.6706" marker-start="url(#ConcaveTriangle-1-2)"/>
  </g>
 </g>
 <g stroke-miterlimit="0">
  <text x="210.22359" y="134.15381" fill="#7f7f7f" font-family="Arial" font-size="18.67px" stroke-linecap="round" stroke-linejoin="round" stroke-width="1.5" text-align="center" text-anchor="middle" style="font-variant-caps:all-small-caps;font-variant-east-asian:normal;font-variant-ligatures:normal;font-variant-numeric:normal;paint-order:fill markers stroke" xml:space="preserve"><tspan x="212.8167" y="134.15381" fill="#7f7f7f" font-family="Arial" font-size="18.67px" style="font-variant-caps:all-small-caps;font-variant-east-asian:normal;font-variant-ligatures:normal;font-variant-numeric:normal">Ф' Л' Ф П' Ф' Л Ф П </tspan></text>
  <g stroke="#000" stroke-linecap="square">
   <g>
    <rect x="9.174" y="47.61" width="28.16" height="28.96" ry="0" fill="#ffd42a" stroke-width="2" style="paint-order:stroke fill markers"/>
    <rect x="37.44" y="47.61" width="28.16" height="28.96" ry="0" fill="#3771c8" stroke-width="2" style="paint-order:stroke fill markers"/>
    <rect transform="matrix(1 0 -.7248 .689 0 0)" x="59.15" y="49.86" width="28" height="19.12" ry="0" fill="#ffd42a" stroke-width="2.405" style="paint-order:stroke fill markers"/>
   </g>
   <rect x="65.49" y="47.61" width="28.16" height="28.96" ry="0" fill="#ffd42a" stroke-linejoin="round" stroke-width="2" style="paint-order:stroke fill markers"/>
  </g>
 </g>
 <g fill="#3771c8" stroke="#000" stroke-linecap="square" stroke-miterlimit="0">
  <g stroke-width="2">
   <rect x="9.131" y="76.67" width="28.16" height="28.96" ry="0" style="paint-order:stroke fill markers"/>
   <rect x="37.4" y="76.67" width="28.16" height="28.96" ry="0" style="paint-order:stroke fill markers"/>
   <rect x="65.45" y="76.67" width="28.16" height="28.96" ry="0" style="paint-order:stroke fill markers"/>
  </g>
  <rect x="9.123" y="105.8" width="28.16" height="28.96" ry="0" stroke-linejoin="round" stroke-width="2" style="paint-order:stroke fill markers"/>
  <g>
   <rect x="37.39" y="105.8" width="28.16" height="28.96" ry="0" stroke-width="2" style="paint-order:stroke fill markers"/>
   <rect x="65.44" y="105.8" width="28.16" height="28.96" ry="0" stroke-width="2" style="paint-order:stroke fill markers"/>
   <rect transform="matrix(1 0 -.7248 .689 0 0)" x="87.28" y="49.9" width="28" height="19.12" ry="0" stroke-width="2.405" style="paint-order:stroke fill markers"/>
  </g>
 </g>
 <rect transform="matrix(1 0 -.7248 .689 0 0)" x="115.4" y="49.91" width="28" height="19.12" ry="0" fill="#ffd42a" stroke="#000" stroke-linecap="square" stroke-linejoin="round" stroke-miterlimit="0" stroke-width="2.405" style="paint-order:stroke fill markers"/>
 <g fill="#3771c8" stroke="#000" stroke-linecap="square" stroke-miterlimit="0" stroke-width="2.405">
  <rect transform="matrix(1 0 -.7248 .689 0 0)" x="59.13" y="30.66" width="28" height="19.12" ry="0" style="paint-order:stroke fill markers"/>
  <rect transform="matrix(1 0 -.7248 .689 0 0)" x="87.26" y="30.69" width="28" height="19.12" ry="0" style="paint-order:stroke fill markers"/>
  <rect transform="matrix(1 0 -.7248 .689 0 0)" x="115.3" y="30.7" width="28" height="19.12" ry="0" style="paint-order:stroke fill markers"/>
 </g>
 <g stroke="#000" stroke-miterlimit="0">
  <g stroke-width="2.405">
   <rect transform="matrix(1 0 -.7248 .689 0 0)" x="59.13" y="11.47" width="28" height="19.12" ry="0" fill="#37c871" stroke-linecap="round" stroke-linejoin="round" style="paint-order:stroke fill markers"/>
   <rect transform="matrix(1 0 -.7248 .689 0 0)" x="87.26" y="11.5" width="28" height="19.12" ry="0" fill="#3771c8" stroke-linecap="square" style="paint-order:stroke fill markers"/>
   <rect transform="matrix(1 0 -.7248 .689 0 0)" x="115.3" y="11.51" width="28" height="19.12" ry="0" fill="#ffd42a" stroke-linecap="round" stroke-linejoin="round" style="paint-order:stroke fill markers"/>
  </g>
  <g stroke-linecap="square" stroke-width="2.337">
   <rect transform="matrix(0 1 .7277 -.6859 0 0)" x="136.5" y="128.8" width="28.74" height="19.13" ry="0" fill="#ffd42a" stroke-linejoin="round" style="paint-order:stroke fill markers"/>
   <rect transform="matrix(0 1 .7277 -.6859 0 0)" x="136.6" y="148" width="28.74" height="19.13" ry="0" fill="#3771c8" style="paint-order:stroke fill markers"/>
   <rect transform="matrix(0 1 .7277 -.6859 0 0)" x="136.5" y="167.2" width="28.74" height="19.13" ry="0" fill="#ffd42a" stroke-linejoin="round" style="paint-order:stroke fill markers"/>
  </g>
 </g>
 <g fill="#3771c8" stroke="#000" stroke-linecap="square" stroke-miterlimit="0" stroke-width="2.337">
  <g>
   <rect transform="matrix(0 1 .7277 -.6859 0 0)" x="165.4" y="128.7" width="28.74" height="19.13" ry="0" style="paint-order:stroke fill markers"/>
   <rect transform="matrix(0 1 .7277 -.6859 0 0)" x="165.4" y="147.9" width="28.74" height="19.13" ry="0" style="paint-order:stroke fill markers"/>
   <rect transform="matrix(0 1 .7277 -.6859 0 0)" x="165.4" y="167.2" width="28.74" height="19.13" ry="0" style="paint-order:stroke fill markers"/>
   <rect transform="matrix(0 1 .7277 -.6859 0 0)" x="194.2" y="128.8" width="28.74" height="19.13" ry="0" style="paint-order:stroke fill markers"/>
   <rect transform="matrix(0 1 .7277 -.6859 0 0)" x="194.3" y="148" width="28.74" height="19.13" ry="0" style="paint-order:stroke fill markers"/>
  </g>
  <rect transform="matrix(0 1 .7277 -.6859 0 0)" x="194.3" y="167.2" width="28.74" height="19.13" ry="0" stroke-linejoin="round" style="paint-order:stroke fill markers"/>
 </g>
 <g fill="none" stroke="#c02525">
  <path d="m79.3 41.23-50.53-0.04498" marker-start="url(#ConcaveTriangle-5)" stroke-width=".955"/>
  <path d="m111.5 20.41-23.01 21.51" marker-start="url(#marker3-4-1-9-2-4)" stroke-width="1.469"/>
  <path d="m37.89 34.95 71.27-21.85" marker-start="url(#marker3-4-1-9-2-4)" stroke-width="1.264"/>
 </g>
</svg>
