<?xml version="1.0" encoding="UTF-8"?>
<svg width="443" height="331" version="1.1" viewBox="0 0 443 331" xmlns="http://www.w3.org/2000/svg">
 <defs>
  <marker id="marker6" overflow="visible" markerHeight="1" markerWidth="1" orient="auto-start-reverse" preserveAspectRatio="xMidYMid" viewBox="0 0 1 1">
   <path transform="scale(.7)" d="m-2-4 11 4-11 4c2-2.33 2-5.66 0-8z" fill="context-stroke" fill-rule="evenodd"/>
  </marker>
  <marker id="marker5" overflow="visible" markerHeight="0.7" markerWidth="0.7" orient="auto-start-reverse" preserveAspectRatio="xMidYMid" viewBox="0 0 1 1">
   <path transform="scale(.7)" d="m-2-4 11 4-11 4c2-2.33 2-5.66 0-8z" fill="context-stroke" fill-rule="evenodd"/>
  </marker>
  <marker id="ConcaveTriangle-5" overflow="visible" markerHeight="1" markerWidth="1" orient="auto-start-reverse" preserveAspectRatio="xMidYMid" viewBox="0 0 1 1">
   <path transform="scale(.7)" d="m-2-4 11 4-11 4c2-2.33 2-5.66 0-8z" fill="context-stroke" fill-rule="evenodd"/>
  </marker>
  <marker id="marker3-4-1-6-3" overflow="visible" markerHeight="1" markerWidth="1" orient="auto-start-reverse" preserveAspectRatio="xMidYMid" viewBox="0 0 1 1">
   <path transform="scale(.7)" d="m-2-4 11 4-11 4c2-2.33 2-5.66 0-8z" fill="context-stroke" fill-rule="evenodd"/>
  </marker>
  <marker id="marker3-4-1-6-3-2" overflow="visible" markerHeight="1" markerWidth="1" orient="auto-start-reverse" preserveAspectRatio="xMidYMid" viewBox="0 0 1 1">
   <path transform="scale(.7)" d="m-2-4 11 4-11 4c2-2.33 2-5.66 0-8z" fill="context-stroke" fill-rule="evenodd"/>
  </marker>
  <marker id="marker3-4-1-6-3-0" overflow="visible" markerHeight="1" markerWidth="1" orient="auto-start-reverse" preserveAspectRatio="xMidYMid" viewBox="0 0 1 1">
   <path transform="scale(.7)" d="m-2-4 11 4-11 4c2-2.33 2-5.66 0-8z" fill="context-stroke" fill-rule="evenodd"/>
  </marker>
  <marker id="marker3-4-1-6-3-2-3" overflow="visible" markerHeight="1" markerWidth="1" orient="auto-start-reverse" preserveAspectRatio="xMidYMid" viewBox="0 0 1 1">
   <path transform="scale(.7)" d="m-2-4 11 4-11 4c2-2.33 2-5.66 0-8z" fill="context-stroke" fill-rule="evenodd"/>
  </marker>
  <marker id="marker3-4-1-6-3-1" overflow="visible" markerHeight="1" markerWidth="1" orient="auto-start-reverse" preserveAspectRatio="xMidYMid" viewBox="0 0 1 1">
   <path transform="scale(.7)" d="m-2-4 11 4-11 4c2-2.33 2-5.66 0-8z" fill="context-stroke" fill-rule="evenodd"/>
  </marker>
  <marker id="marker3-4-1-6-3-0-4" overflow="visible" markerHeight="1" markerWidth="1" orient="auto-start-reverse" preserveAspectRatio="xMidYMid" viewBox="0 0 1 1">
   <path transform="scale(.7)" d="m-2-4 11 4-11 4c2-2.33 2-5.66 0-8z" fill="context-stroke" fill-rule="evenodd"/>
  </marker>
  <marker id="marker3-4-1-6-3-2-6" overflow="visible" markerHeight="1" markerWidth="1" orient="auto-start-reverse" preserveAspectRatio="xMidYMid" viewBox="0 0 1 1">
   <path transform="scale(.7)" d="m-2-4 11 4-11 4c2-2.33 2-5.66 0-8z" fill="context-stroke" fill-rule="evenodd"/>
  </marker>
  <marker id="marker3-4-1-6-3-2-3-7" overflow="visible" markerHeight="1" markerWidth="1" orient="auto-start-reverse" preserveAspectRatio="xMidYMid" viewBox="0 0 1 1">
   <path transform="scale(.7)" d="m-2-4 11 4-11 4c2-2.33 2-5.66 0-8z" fill="context-stroke" fill-rule="evenodd"/>
  </marker>
 </defs>
 <g transform="translate(-.09875 .6323)" fill="none" stroke="#929292" stroke-width="2">
  <rect x="9.099" y="160.4" width="72" height="72" stroke-linecap="round" stroke-linejoin="round" stroke-miterlimit="0" style="paint-order:fill markers stroke"/>
  <g>
   <path d="m33 160.4v71.61"/>
   <path d="m81.13 184.3h-71.61"/>
   <path d="m80.94 208.3h-71.61"/>
   <path d="m57.33 160.5v71.61"/>
  </g>
 </g>
 <g transform="translate(86.9 .6323)" fill="none" stroke="#929292" stroke-width="2">
  <rect x="9.099" y="160.4" width="72" height="72" stroke-linecap="round" stroke-linejoin="round" stroke-miterlimit="0" style="paint-order:fill markers stroke"/>
  <g>
   <path d="m33 160.4v71.61"/>
   <path d="m81.13 184.3h-71.61"/>
   <path d="m80.94 208.3h-71.61"/>
   <path d="m57.33 160.5v71.61"/>
  </g>
 </g>
 <g transform="translate(173.9 .6323)" fill="none" stroke="#929292" stroke-width="2">
  <rect x="9.099" y="160.4" width="72" height="72" stroke-linecap="round" stroke-linejoin="round" stroke-miterlimit="0" style="paint-order:fill markers stroke"/>
  <g>
   <path d="m33 160.4v71.61"/>
   <path d="m81.13 184.3h-71.61"/>
   <path d="m80.94 208.3h-71.61"/>
   <path d="m57.33 160.5v71.61"/>
  </g>
 </g>
 <g transform="translate(260.9 .6323)" fill="none" stroke="#929292" stroke-width="2">
  <rect x="9.099" y="160.4" width="72" height="72" stroke-linecap="round" stroke-linejoin="round" stroke-miterlimit="0" style="paint-order:fill markers stroke"/>
  <g>
   <path d="m33 160.4v71.61"/>
   <path d="m81.13 184.3h-71.61"/>
   <path d="m80.94 208.3h-71.61"/>
   <path d="m57.33 160.5v71.61"/>
  </g>
 </g>
 <g transform="translate(353.4 88.63)" fill="none" stroke="#929292" stroke-width="2">
  <rect x="9.099" y="160.4" width="72" height="72" stroke-linecap="round" stroke-linejoin="round" stroke-miterlimit="0" style="paint-order:fill markers stroke"/>
  <g>
   <path d="m33 160.4v71.61"/>
   <path d="m81.13 184.3h-71.61"/>
   <path d="m80.94 208.3h-71.61"/>
   <path d="m57.33 160.5v71.61"/>
  </g>
 </g>
 <path d="m380.4 259.9h37.95" fill="#37c871" fill-rule="evenodd" marker-end="url(#marker5)" marker-start="url(#marker6)" stroke="#37c871" stroke-width="1.519"/>
 <g fill="none" stroke="#c02525" stroke-width="1.624">
  <path d="m69.36 223.6v-43.37" marker-end="url(#marker3-4-1-6-3)"/>
  <path d="m243.7 222.6v-43.37" marker-end="url(#marker3-4-1-6-3-0)"/>
  <path d="m107.5 199.7h43.37" marker-end="url(#marker3-4-1-6-3-2)"/>
  <path d="m281.1 198h43.37" marker-end="url(#marker3-4-1-6-3-2-3)"/>
 </g>
 <g transform="translate(-.09875 88.63)" fill="none" stroke="#929292" stroke-width="2">
  <rect x="9.099" y="160.4" width="72" height="72" stroke-linecap="round" stroke-linejoin="round" stroke-miterlimit="0" style="paint-order:fill markers stroke"/>
  <g>
   <path d="m33 160.4v71.61"/>
   <path d="m81.13 184.3h-71.61"/>
   <path d="m80.94 208.3h-71.61"/>
   <path d="m57.33 160.5v71.61"/>
  </g>
 </g>
 <g transform="translate(86.9 88.63)" fill="none" stroke="#929292" stroke-width="2">
  <rect x="9.099" y="160.4" width="72" height="72" stroke-linecap="round" stroke-linejoin="round" stroke-miterlimit="0" style="paint-order:fill markers stroke"/>
  <g>
   <path d="m33 160.4v71.61"/>
   <path d="m81.13 184.3h-71.61"/>
   <path d="m80.94 208.3h-71.61"/>
   <path d="m57.33 160.5v71.61"/>
  </g>
 </g>
 <g transform="translate(173.9 88.63)" fill="none" stroke="#929292" stroke-width="2">
  <rect x="9.099" y="160.4" width="72" height="72" stroke-linecap="round" stroke-linejoin="round" stroke-miterlimit="0" style="paint-order:fill markers stroke"/>
  <g>
   <path d="m33 160.4v71.61"/>
   <path d="m81.13 184.3h-71.61"/>
   <path d="m80.94 208.3h-71.61"/>
   <path d="m57.33 160.5v71.61"/>
  </g>
 </g>
 <g transform="translate(260.9 88.63)" fill="none" stroke="#929292" stroke-width="2">
  <rect x="9.099" y="160.4" width="72" height="72" stroke-linecap="round" stroke-linejoin="round" stroke-miterlimit="0" style="paint-order:fill markers stroke"/>
  <g>
   <path d="m33 160.4v71.61"/>
   <path d="m81.13 184.3h-71.61"/>
   <path d="m80.94 208.3h-71.61"/>
   <path d="m57.33 160.5v71.61"/>
  </g>
 </g>
 <g fill="none" stroke="#c02525" stroke-width="1.624">
  <path d="m69.36 311.6v-43.37" marker-end="url(#marker3-4-1-6-3-1)"/>
  <path d="m243.7 310.6v-43.37" marker-end="url(#marker3-4-1-6-3-0-4)"/>
  <path d="m107.5 287.7h43.37" marker-end="url(#marker3-4-1-6-3-2-6)"/>
  <path d="m281.1 286h43.37" marker-end="url(#marker3-4-1-6-3-2-3-7)"/>
 </g>
 <g stroke-miterlimit="0">
  <text x="174.22359" y="123.58987" fill="#7f7f7f" font-family="Arial" font-size="18.67px" stroke-linecap="round" stroke-linejoin="round" stroke-width="1.5" text-align="center" text-anchor="middle" style="font-variant-caps:all-small-caps;font-variant-east-asian:normal;font-variant-ligatures:normal;font-variant-numeric:normal;paint-order:fill markers stroke" xml:space="preserve"><tspan x="176.8167" y="123.58987" fill="#7f7f7f" font-family="Arial" font-size="18.67px" style="font-variant-caps:all-small-caps;font-variant-east-asian:normal;font-variant-ligatures:normal;font-variant-numeric:normal">(ПС<tspan font-family="Arial" font-size="13.33px" style="font-variant-caps:all-small-caps;font-variant-east-asian:normal;font-variant-ligatures:normal;font-variant-numeric:normal">н</tspan>)4 </tspan></text>
  <text x="272.92874" y="123.58987" fill="#7f7f7f" font-family="Arial" font-size="18.67px" stroke-linecap="round" stroke-linejoin="round" stroke-width="1.5" text-align="center" text-anchor="middle" style="font-variant-caps:all-small-caps;font-variant-east-asian:normal;font-variant-ligatures:normal;font-variant-numeric:normal;paint-order:fill markers stroke" xml:space="preserve"><tspan x="275.52185" y="123.58987" fill="#7f7f7f" font-family="Arial" font-size="18.67px" style="font-variant-caps:all-small-caps;font-variant-east-asian:normal;font-variant-ligatures:normal;font-variant-numeric:normal">(ПС<tspan font-family="Arial" font-size="13.33px" style="font-variant-caps:all-small-caps;font-variant-east-asian:normal;font-variant-ligatures:normal;font-variant-numeric:normal">н</tspan>)4 </tspan></text>
  <g stroke="#000" stroke-linecap="square">
   <g>
    <rect x="9.174" y="47.61" width="28.16" height="28.96" ry="0" fill="#fff" stroke-width="2" style="paint-order:stroke fill markers"/>
    <rect x="37.44" y="47.61" width="28.16" height="28.96" ry="0" fill="#37c871" stroke-width="2" style="paint-order:stroke fill markers"/>
    <rect transform="matrix(1 0 -.7248 .689 0 0)" x="59.15" y="49.86" width="28" height="19.12" ry="0" fill="#fff" stroke-width="2.405" style="paint-order:stroke fill markers"/>
   </g>
   <rect x="65.49" y="47.61" width="28.16" height="28.96" ry="0" fill="#fff" stroke-linejoin="round" stroke-width="2" style="paint-order:stroke fill markers"/>
  </g>
 </g>
 <g fill="#3771c8" stroke="#000" stroke-linecap="square" stroke-miterlimit="0" stroke-width="2">
  <g>
   <rect x="9.131" y="76.67" width="28.16" height="28.96" ry="0" style="paint-order:stroke fill markers"/>
   <rect x="37.4" y="76.67" width="28.16" height="28.96" ry="0" style="paint-order:stroke fill markers"/>
   <rect x="65.45" y="76.67" width="28.16" height="28.96" ry="0" style="paint-order:stroke fill markers"/>
  </g>
  <rect x="9.123" y="105.8" width="28.16" height="28.96" ry="0" stroke-linejoin="round" style="paint-order:stroke fill markers"/>
  <rect x="37.39" y="105.8" width="28.16" height="28.96" ry="0" style="paint-order:stroke fill markers"/>
  <rect x="65.44" y="105.8" width="28.16" height="28.96" ry="0" style="paint-order:stroke fill markers"/>
 </g>
 <g stroke="#000" stroke-miterlimit="0">
  <g stroke-linecap="square" stroke-width="2.405">
   <rect transform="matrix(1 0 -.7248 .689 0 0)" x="87.28" y="49.9" width="28" height="19.12" ry="0" fill="#37c871" style="paint-order:stroke fill markers"/>
   <rect transform="matrix(1 0 -.7248 .689 0 0)" x="115.4" y="49.91" width="28" height="19.12" ry="0" fill="#fff" stroke-linejoin="round" style="paint-order:stroke fill markers"/>
   <g>
    <rect transform="matrix(1 0 -.7248 .689 0 0)" x="59.13" y="30.66" width="28" height="19.12" ry="0" fill="#3771c8" style="paint-order:stroke fill markers"/>
    <rect transform="matrix(1 0 -.7248 .689 0 0)" x="87.26" y="30.69" width="28" height="19.12" ry="0" fill="#3771c8" style="paint-order:stroke fill markers"/>
    <rect transform="matrix(1 0 -.7248 .689 0 0)" x="115.3" y="30.7" width="28" height="19.12" ry="0" fill="#ffd42a" style="paint-order:stroke fill markers"/>
   </g>
  </g>
  <g stroke-width="2.405">
   <rect transform="matrix(1 0 -.7248 .689 0 0)" x="59.13" y="11.47" width="28" height="19.12" ry="0" fill="#fff" stroke-linecap="round" stroke-linejoin="round" style="paint-order:stroke fill markers"/>
   <rect transform="matrix(1 0 -.7248 .689 0 0)" x="87.26" y="11.5" width="28" height="19.12" ry="0" fill="#37c871" stroke-linecap="square" style="paint-order:stroke fill markers"/>
   <rect transform="matrix(1 0 -.7248 .689 0 0)" x="115.3" y="11.51" width="28" height="19.12" ry="0" fill="#fff" stroke-linecap="round" stroke-linejoin="round" style="paint-order:stroke fill markers"/>
  </g>
  <g stroke-linecap="square" stroke-width="2.337">
   <rect transform="matrix(0 1 .7277 -.6859 0 0)" x="136.5" y="128.8" width="28.74" height="19.13" ry="0" fill="#fff" stroke-linejoin="round" style="paint-order:stroke fill markers"/>
   <rect transform="matrix(0 1 .7277 -.6859 0 0)" x="136.6" y="148" width="28.74" height="19.13" ry="0" fill="#ffd42a" style="paint-order:stroke fill markers"/>
   <rect transform="matrix(0 1 .7277 -.6859 0 0)" x="136.5" y="167.2" width="28.74" height="19.13" ry="0" fill="#fff" stroke-linejoin="round" style="paint-order:stroke fill markers"/>
  </g>
 </g>
 <g fill="#3771c8" stroke="#000" stroke-linecap="square" stroke-miterlimit="0" stroke-width="2.337">
  <g>
   <rect transform="matrix(0 1 .7277 -.6859 0 0)" x="165.4" y="128.7" width="28.74" height="19.13" ry="0" style="paint-order:stroke fill markers"/>
   <rect transform="matrix(0 1 .7277 -.6859 0 0)" x="165.4" y="147.9" width="28.74" height="19.13" ry="0" style="paint-order:stroke fill markers"/>
   <rect transform="matrix(0 1 .7277 -.6859 0 0)" x="165.4" y="167.2" width="28.74" height="19.13" ry="0" style="paint-order:stroke fill markers"/>
   <rect transform="matrix(0 1 .7277 -.6859 0 0)" x="194.2" y="128.8" width="28.74" height="19.13" ry="0" style="paint-order:stroke fill markers"/>
   <rect transform="matrix(0 1 .7277 -.6859 0 0)" x="194.3" y="148" width="28.74" height="19.13" ry="0" style="paint-order:stroke fill markers"/>
  </g>
  <rect transform="matrix(0 1 .7277 -.6859 0 0)" x="194.3" y="167.2" width="28.74" height="19.13" ry="0" stroke-linejoin="round" style="paint-order:stroke fill markers"/>
 </g>
 <circle cx="354.3" cy="255.8" r="4.303" fill="#37c871" stroke-linecap="round" stroke-linejoin="round" stroke-miterlimit="10" stroke-width="1.873" style="paint-order:stroke fill markers"/>
 <path transform="matrix(.3612 .05333 -.04052 .3642 77.5 -78.92)" d="m112 265.6c12.2-8.892 29.83-6.128 38.72 6.071 8.892 12.2 6.128 29.83-6.071 38.72-0.3125 0.2278-0.6298 0.449-0.9515 0.6635" fill="none" marker-start="url(#ConcaveTriangle-5)" stroke="#c02525" stroke-width="2.762"/>
 <path transform="matrix(.3506 -.102 .1149 .348 27.13 -48.78)" d="m112 265.6c12.2-8.892 29.83-6.128 38.72 6.071 8.892 12.2 6.128 29.83-6.071 38.72-0.3125 0.2278-0.6298 0.449-0.9515 0.6635" fill="none" marker-end="url(#ConcaveTriangle-5)" stroke="#c02525" stroke-width="2.762"/>
 <text x="215.84311" y="99.004082" fill="#7f7f7f" font-family="Arial" font-size="18.67px" stroke-linecap="round" stroke-linejoin="round" stroke-miterlimit="0" stroke-width="1.5" style="font-variant-caps:all-small-caps;font-variant-east-asian:normal;font-variant-ligatures:normal;font-variant-numeric:normal;paint-order:fill markers stroke" xml:space="preserve"><tspan x="215.84311" y="99.004082" style="font-variant-caps:all-small-caps;font-variant-east-asian:normal;font-variant-ligatures:normal;font-variant-numeric:normal">В</tspan><tspan x="215.84311" y="122.33746" style="font-variant-caps:all-small-caps;font-variant-east-asian:normal;font-variant-ligatures:normal;font-variant-numeric:normal">В'</tspan><tspan x="215.84311" y="145.67084" style="font-variant-caps:all-small-caps;font-variant-east-asian:normal;font-variant-ligatures:normal;font-variant-numeric:normal">В''</tspan></text>
 <g transform="matrix(1.212 0 0 1.244 -45.54 -29.8)" fill="none" stroke="#7f7f7f" stroke-linecap="round" stroke-width="1px">
  <path d="m214 96-9 22"/>
  <path d="m205 118 9 22"/>
 </g>
 <g transform="matrix(-1.212 0 0 1.244 490.8 -29.8)" fill="none" stroke="#7f7f7f" stroke-linecap="round" stroke-width="1px">
  <path d="m214 96-9 22"/>
  <path d="m205 118 9 22"/>
 </g>
</svg>
